<?xml version="1.0" encoding="UTF-8"?>
<svg width="83px" height="85px" viewBox="0 0 83 85" version="1.1" xmlns="http://www.w3.org/2000/svg" xmlns:xlink="http://www.w3.org/1999/xlink">
    <title>noun-code-1750674</title>
    <g id="Page-1" stroke="none" stroke-width="1" fill="none" fill-rule="evenodd">
        <g id="Artboard" transform="translate(-430.000000, -236.000000)" fill="#FFFFFF" fill-rule="nonzero">
            <g id="noun-code-1750674" transform="translate(430.000000, 236.000000)">
                <path d="M63.554,82.431 L62.054,82.431 L62.054,80.931 L62.054,63.714 C62.054,63.066 61.527,62.539 60.879,62.539 L22.145,62.539 C21.497,62.539 20.97,63.066 20.97,63.714 L20.97,80.931 L20.97,82.431 L1.28,82.431 L1.28,84.781 L22.144,84.781 L60.878,84.781 L63.281,84.781 L66.987,84.781 L81.734,84.781 L81.734,82.431 L66.715,82.431 L63.554,82.431 Z M38.063,78.971 L37.002,80.032 L30.631,73.66 L37.002,67.288 L38.063,68.349 L32.752,73.661 L38.063,78.971 Z M40.426,79.722 L38.992,79.28 L42.598,67.597 L44.032,68.039 L40.426,79.722 Z M46.022,80.032 L44.961,78.971 L50.273,73.659 L44.961,68.347 L46.022,67.286 L52.394,73.658 L46.022,80.032 Z" id="Shape"></path>
                <path d="M26.878,61.039 L56.382,61.039 C55.76,54.07 46.747,53.766 46.349,53.758 L45.889,53.748 L43.871,49.548 C43.158,49.753 42.408,49.869 41.629,49.869 C40.851,49.869 40.101,49.753 39.388,49.548 L37.37,53.747 L36.91,53.758 C36.513,53.767 27.501,54.088 26.878,61.039 Z" id="Path"></path>
                <path d="M41.629,48.369 C44.845,48.369 47.531,46.066 48.131,43.024 C48.213,42.608 48.258,42.18 48.258,41.741 C48.258,41.668 48.249,41.597 48.247,41.524 C48.131,37.97 45.211,35.113 41.629,35.113 C38.047,35.113 35.128,37.97 35.012,41.524 C35.01,41.597 35.001,41.668 35.001,41.741 C35.001,42.18 35.046,42.609 35.128,43.024 C35.728,46.066 38.413,48.369 41.629,48.369 Z" id="Path"></path>
                <polygon id="Path" points="1.061 26.904 14.513 13.451 1.061 0 0 1.06 12.392 13.451 0 25.843"></polygon>
                <rect id="Rectangle" x="21.663" y="6.129" width="11.602" height="1.5"></rect>
                <rect id="Rectangle" x="40.485" y="6.129" width="17.275" height="1.5"></rect>
                <rect id="Rectangle" x="67.08" y="6.129" width="3.042" height="1.5"></rect>
                <rect id="Rectangle" x="78.722" y="6.129" width="3.763" height="1.5"></rect>
                <rect id="Rectangle" x="70.883" y="12.701" width="11.602" height="1.5"></rect>
                <rect id="Rectangle" x="46.388" y="12.701" width="17.274" height="1.5"></rect>
                <rect id="Rectangle" x="34.026" y="12.701" width="3.042" height="1.5"></rect>
                <rect id="Rectangle" x="21.663" y="12.701" width="3.763" height="1.5"></rect>
                <rect id="Rectangle" x="21.663" y="19.275" width="11.602" height="1.5"></rect>
                <rect id="Rectangle" x="40.485" y="19.275" width="17.275" height="1.5"></rect>
                <rect id="Rectangle" x="67.08" y="19.275" width="3.042" height="1.5"></rect>
                <rect id="Rectangle" x="78.722" y="19.275" width="3.763" height="1.5"></rect>
                <rect id="Rectangle" x="0.53" y="32.667" width="15.633" height="1.5"></rect>
                <rect id="Rectangle" x="61.728" y="32.667" width="4.099" height="1.5"></rect>
                <rect id="Rectangle" x="77.415" y="32.667" width="5.069" height="1.5"></rect>
                <rect id="Rectangle" x="66.852" y="41.524" width="15.633" height="1.5"></rect>
                <rect id="Rectangle" x="17.188" y="41.524" width="4.099" height="1.5"></rect>
                <rect id="Rectangle" x="0.53" y="41.524" width="5.069" height="1.5"></rect>
                <rect id="Rectangle" x="0.53" y="50.38" width="15.633" height="1.5"></rect>
                <rect id="Rectangle" x="61.728" y="50.38" width="4.099" height="1.5"></rect>
                <rect id="Rectangle" x="77.415" y="50.38" width="5.069" height="1.5"></rect>
            </g>
        </g>
    </g>
</svg>