<?xml version="1.0" encoding="UTF-8"?>
<svg width="98px" height="98px" viewBox="0 0 98 98" version="1.1" xmlns="http://www.w3.org/2000/svg" xmlns:xlink="http://www.w3.org/1999/xlink">
    <title>noun-community-2651390</title>
    <g id="Page-1" stroke="none" stroke-width="1" fill="none" fill-rule="evenodd">
        <g id="Artboard" transform="translate(-310.000000, -245.000000)" fill="#FFFFFF" fill-rule="nonzero">
            <g id="noun-community-2651390" transform="translate(310.000000, 245.000000)">
                <path d="M33.3,42.6 L33.3,47.5 L54.9,47.5 L54.9,42.6 C54.9,39.7 52.6,37.3 49.6,37.3 L38.5,37.3 C35.7,37.4 33.3,39.7 33.3,42.6 Z" id="Path"></path>
                <path d="M60.9,36.1 C63.5,36.1 65.7,34 65.7,31.3 C65.7,28.7 63.6,26.5 60.9,26.5 C58.3,26.5 56.1,28.6 56.1,31.3 C56.2,34 58.3,36.1 60.9,36.1 Z" id="Path"></path>
                <path d="M69.5,45.8 L69.5,42 C69.5,39.7 67.7,37.9 65.4,37.9 L56.6,37.9 C56.1,37.9 55.7,38 55.3,38.1 C56.7,39.1 57.6,40.6 57.6,42.4 L57.6,45.9 L69.5,45.9 L69.5,45.8 Z" id="Path"></path>
                <path d="M18.7,42 L18.7,45.8 L30.8,45.8 L30.8,42.3 C30.8,40.6 31.7,39.1 33.1,38.1 C32.6,37.9 32.2,37.8 31.6,37.8 L22.8,37.8 C20.6,37.8 18.7,39.6 18.7,42 Z" id="Path"></path>
                <path d="M44.1,35.2 C47.4,35.2 50.1,32.5 50.1,29.2 C50.1,25.9 47.4,23.2 44.1,23.2 C40.8,23.2 38.1,25.9 38.1,29.2 C38.1,32.5 40.8,35.2 44.1,35.2 Z" id="Path"></path>
                <path d="M27.2,36.1 C29.8,36.1 32,34 32,31.3 C32,28.7 29.9,26.5 27.2,26.5 C24.5,26.5 22.4,28.6 22.4,31.3 C22.5,34 24.6,36.1 27.2,36.1 Z" id="Path"></path>
                <path d="M86,87.2 C91.4,81.4 94.6,73.6 94.6,65 C94.6,56.1 91,48 85.2,42.1 C82.7,63.1 64.7,79.2 42.9,79.1 L32.4,79.1 C37.6,90.2 48.9,97.9 62,97.8 L97.6,97.7 L86,87.2 Z" id="Path"></path>
                <path d="M70.2,10.9 C63.2,4 54,0.1 44.1,0 C23.7,0 7.1,16.5 7.1,36.9 C7.1,45.2 9.9,53.4 14.9,59.8 L15.2,60.2 L0,73.7 L44.1,73.9 C64.4,73.9 81,57.4 81,37 C81,27.1 77.1,17.9 70.2,10.9 Z M44.1,69.2 L12.6,69.1 L22.1,60.5 L20.4,58.7 C14.9,52.7 12,45 12,36.8 C12,19.2 26.4,4.8 44.1,4.8 C52.8,4.8 60.9,8.2 66.9,14.3 C72.9,20.4 76.2,28.5 76.2,37.1 C76.2,54.8 61.8,69.2 44.1,69.2 Z" id="Shape"></path>
            </g>
        </g>
    </g>
</svg>